<?xml version="1.0" encoding="utf-8"?>
<svg version="1.1" width="512" height="512" viewBox="54 0 444 513" xmlns="http://www.w3.org/2000/svg">
  <path d="M 0 0 C 141.861 -64.444 137.615 163.829 84 164 C 81.504 202.903 44.768 235 42 235 C 42.241 235.501 54.465 259.29 57.82 277.918 C 113.831 305.571 126.19 342.816 82 418 C 139.33 452.965 116.91 490.574 100 493 C 95.595 493.562 -209.523 494.004 -211.35 493.664 C -269.97 482.744 -229.368 424.518 -202 417 C -203.963 411.052 -207.881 405.153 -213.286 401.695 C -308.922 367.676 -293.407 239.167 -239.812 231.75 C -213.3 228.081 -211.073 276.626 -208 297 C -207.562 296.576 -192.097 283.383 -179 280 C -176.839 276.152 -163.984 238.476 -164.074 235.777 C -190.049 209.838 -202.192 181.195 -205 165 C -268.945 142.942 -255.819 -52.931 -123 0 C -118.752 -0.556 -101.737 -20.128 -61.585 -19.329 C -25.157 -17.893 -24.491 -16.327 0 0 Z" fill="#0D0D0C" transform="translate(337,19)"/>
  <path d="M 0 0 C 47.189 39.94 53.775 126.964 77.222 149.01 C 71.968 196.054 20.66 240.132 -55.25 237.608 C -139.505 234.806 -181.306 199.654 -188.149 150.025 C -155.582 124.368 -176.824 90.581 -120.403 9.135 C -107.002 -10.21 -90.378 -19.695 -57.989 -20.057 C -28.131 -20.391 -18.516 -15.672 0 0 Z" transform="translate(332.4033203125,30.86474609375)" style="fill: rgb(244, 197, 92);"/>
  <path d="M 0 0 C 29.859 9.615 65.96 20.721 76 22 C 84.098 60.003 123.155 43.757 124 22 C 150.262 18.145 198 0 200 0 C 229.823 64.851 173.974 153.433 173.602 161 C 181.738 179.86 225.057 202.873 194.911 219.177 C 193.401 219.994 140.34 219.479 138.79 219.488 C 123.062 219.449 125.703 219.183 145 74.035 C 142.241 69.296 136.85 70.838 135 73 C 134.439 76.005 132.315 98.596 132 102 C 105.151 95.368 97.356 94.783 68 102 C 66.975 96.44 64.352 73.98 64 72 C 59.613 68.89 55.85 70.838 54 73 C 72.187 205.513 78.356 219.156 63 219 C 61.189 219.116 6.332 220.552 4.72 219.592 C -30.372 198.683 25.194 170.517 27.018 158.58 C 26.811 148.785 -34.844 74.885 0 0 Z" transform="translate(177,281)" style="fill: rgb(244, 196, 93);"/>
  <path d="M -46.829 14.411 C -31.29 -17.206 6.679 -6.17 9 14 C 68.077 47.187 57.97 103.077 20.875 114.813 C 14.16 116.937 13.305 121.321 7.496 125.598 C -10.629 138.944 -30.557 140.644 -45.215 121.492 C -47.659 118.08 -50.675 117.031 -54.5 115.688 C -91.467 102.711 -100.084 54.336 -46.829 14.411 Z" fill="#0E0D0C" transform="translate(294,126)"/>
  <path d="M -55.941 -2.047 C -38.649 -8.746 -16.413 -9.668 2.938 2.125 C -41.327 51.607 -43.86 133.295 -69.299 144.686 C -117.838 106.223 -94.415 17.68 -55.941 -2.047 Z" fill="#A44F15" transform="translate(203.0625,26.875)"/>
  <path d="M 0 0 C 36.466 13.609 51.29 105.254 19.908 147.158 C -9.761 144.696 -7.776 57.835 -57.051 5.117 C -39.875 -6.173 -17.56 -8.877 0 0 Z" fill="#A44F15" transform="translate(405.05078125,23.8828125)"/>
  <path d="M 0 0 C 3.227 22.435 -9.741 49.793 36 125.889 C 31.369 133.076 -14.438 164.589 8 187 C 1.72 187.127 -27.895 187.527 -29.346 187.566 C -35.884 187.569 -81.381 169.049 -9.446 127.401 C -61.466 40.807 -26.472 8.236 0 0 Z" transform="translate(156,313)" style="fill: rgb(244, 196, 93);"/>
  <path d="M 0 0 C 16.299 5.23 73.999 27.656 9.367 129.386 C 69.888 163.277 42.534 185.06 38 187 C 35.811 187.241 -1.733 187.042 -7 187 C 12.439 164.581 -30.732 138.533 -35.687 126.419 C -1.944 71.454 0.975 23.801 0 0 Z" transform="translate(396,313)" style="fill: rgb(244, 196, 93);"/>
  <path d="M -29.187 7.375 C -13.051 1.237 15.751 -2.095 30.813 8.375 C 22.33 77.166 13.808 109.47 20.813 111.375 C 7.613 111.375 -5.587 111.375 -19.187 111.375 C -10.897 106.653 -24.389 61.616 -29.187 7.375 Z" fill="#FCF2B6" transform="translate(276.1875,388.625)"/>
  <path d="M 18 141 C -105.257 76.271 20.4 -91.433 16.394 60.133 C 0.854 104.785 13.152 122.351 18 141 Z" fill="#A44F15" transform="translate(101,264)"/>
  <path d="M 0 0 C 3.682 8.699 13.013 18.13 21 22 C 21.175 25.729 24.799 39.669 19.778 46.819 C 15.149 50.867 9.52 52.84 -2.087 50.012 C -5.151 49.775 -10.946 44.91 -14.479 51.557 C -15.139 58.522 -8.716 60.095 -6 61 C -6 66.28 -6 71.56 -6 77 C -37.662 62.342 -36.247 30.958 0 0 Z" fill="#A34F15" transform="translate(250,153)"/>
  <path d="M 0 0 C 35.884 19.407 43.437 65.925 5.322 78.958 C 5.322 73.678 7 66.44 7 61 C 9.64 59.68 17.794 57.293 16.218 52.127 C 13.942 46.803 9.058 48.058 3.752 50.218 C -6.432 55.837 -14.121 51.577 -19 46 C -20.19 41.976 -23.387 27.116 -17.28 20.269 C -5.37 15.173 -2.491 6.683 0 0 Z" fill="#A34F15" transform="translate(302,153)"/>
  <path d="M 0 0 C 70.09 23.394 124.384 20.655 184 -0.161 C 185.686 2.087 187.167 7.492 187.126 10.299 C 185.705 14.13 115.999 30.455 112 30 C 106.586 22.927 102.222 20.505 90.337 19.547 C 77.626 20.043 72 30 69.223 30.34 C 56.408 29.745 39.836 29.507 -2 10 C -3.392 5.824 -1.823 3.865 0 0 Z" fill="#ED2020" transform="translate(185,261)"/>
  <path d="M 0 0 C -0.534 12.644 -1.348 18.439 4.686 20.863 C 12.4 19.578 12.331 14.179 12 0 C 12.825 0.309 21.962 2.582 26 3 C 27.191 25.32 24.81 37.462 2.832 38.414 C -21.701 31.416 -15.038 5.17 -15 3 C -14.229 2.867 -2.444 0 0 0 Z" transform="translate(271,213)" style="fill: rgb(248, 128, 168);"/>
  <path d="M 0.19 -0.571 C 3.187 1.926 3.918 4.185 4.313 8.125 C 3.735 15.289 1.313 22.373 -10 28 C -25.961 22.215 -26.675 11.804 -26.387 6.047 C -25.775 2.808 -24.428 1.166 -22 -1 C -15.274 -5.154 -6.37 -4.186 0.19 -0.571 Z" fill="#1C1D1D" transform="translate(288,137)"/>
  <ellipse style="stroke: rgb(0, 0, 0); stroke-width: 0px; fill: rgb(250, 210, 48);" cx="276.5" cy="303.286" rx="11.5" ry="12.286"/>
  <ellipse style="stroke: rgb(0, 0, 0); stroke-width: 0px; fill: rgb(15, 15, 12);" cx="223.5" cy="93.5" rx="13.5" ry="13.5"/>
  <ellipse style="stroke: rgb(0, 0, 0); stroke-width: 0px; fill: rgb(15, 15, 12);" cx="329.5" cy="93.547" rx="13.5" ry="13.5"/>
</svg>