<?xml version="1.0" encoding="utf-8"?>
<svg version="1.1" width="512" height="512" viewBox="-20 0 597 514" xmlns="http://www.w3.org/2000/svg">
  <path d="M 0 0 C 88.695 -58.654 145.747 55.319 112.752 137.099 C 108.892 146.666 41.88 414.36 40.913 417.609 C 42.163 431.458 55.825 432.105 71 453 C 76.534 460.62 77.211 471.129 73.315 479.711 C 69.274 486.717 61.258 491.204 53.63 493.63 C 31.506 494.162 11.14 494.246 -12.174 494.193 C -13.575 494.19 -17.771 491.144 -19.49 487.732 C -28.484 469.886 -31.329 431.244 -28.835 414.453 C -26.938 401.679 -66.142 417.685 -76.05 417.708 C -86.324 417.732 -85.477 493.557 -95.543 493.574 C -132.542 493.637 -164.563 493.656 -165.35 493.664 C -173.693 493.573 -180.597 492.018 -186.906 486.26 C -193.542 479.173 -194.626 472.504 -194.41 462.98 C -193.575 452.224 -175.741 439.895 -162.861 424.155 C -159.168 419.641 -222.231 158.191 -227.625 149.688 C -260.583 98.687 -232.559 -50.546 -123 0 C -93.288 -26.467 -29.405 -23.028 0 0 Z" fill="#0D0D0C" transform="translate(337,19)"/>
  <path d="M -56.586 -21.003 C 22.377 -20.014 43.501 76.842 64.366 126.788 C 64.691 127.567 -174.506 124.893 -174.242 123.897 C -147.811 24.023 -110.128 -17.579 -56.586 -21.003 Z" transform="translate(332.4033203125,30.86474609375)" style="fill: rgb(244, 196, 93);"/>
  <path d="M 8.438 158 C 8.231 148.205 191.452 152.057 192.625 158 C 195.188 170.989 227.722 192.909 225.003 210.001 C 222.166 227.834 156.431 224.741 151.714 219.714 C 144.958 208.862 139.095 166.077 144.033 155.433 C 149.755 143.101 67.804 133.272 66.66 154.582 C 65.571 174.875 59.533 210.648 53.909 219 C 51.719 221.824 4.696 222.08 0.73 222.094 C -1.11 222.128 -19.477 223.826 -23.857 209.571 C -31.273 193.453 8.48 173.618 8.438 158 Z" transform="translate(177,281)" style="fill: rgb(244, 197, 92);"/>
  <path d="M -46.648 21.003 C -40.211 -15.135 9.507 -8.184 10.421 18.973 C 11.225 19.159 -53.273 24.609 -46.648 21.003 Z" fill="#0E0D0C" transform="translate(294,126)"/>
  <path d="M -91.237 118.744 C -108.122 78.709 -78.591 -46.287 2.938 2.125 C -31.442 36.202 -41.916 85.328 -54.437 119.69 C -67.425 155.332 -85.647 132 -91.237 118.744 Z" fill="#A44F15" transform="translate(203.0625,26.875)"/>
  <path d="M -57.051 5.117 C 19.474 -51.014 56.708 63.33 35.429 120.034 C 32.005 129.159 2.623 130.762 -0.766 123.121 C -1.11 122.345 -23.319 35.692 -57.051 5.117 Z" fill="#A44F15" transform="translate(405.05078125,23.8828125)"/>
  <path d="M 0 0 C 2.997 2.497 3.918 4.185 4.313 8.125 C 3.735 15.289 -26.675 11.804 -26.387 6.047 C -25.775 2.808 -24.428 1.166 -22 -1 C -15.274 -5.154 -6.56 -3.615 0 0 Z" fill="#1C1D1D" transform="translate(288,137)"/>
  <ellipse style="stroke: rgb(0, 0, 0); stroke-width: 10px; fill: rgb(244, 197, 92);" cx="9" cy="283" rx="24" ry="35"/>
  <ellipse style="stroke: rgb(0, 0, 0); stroke-width: 10px; fill: rgb(244, 197, 92);" cx="545.795" cy="283" rx="24" ry="35"/>
  <rect x="21.774" y="149.017" width="509.58" height="302.735" style="stroke: rgb(0, 0, 0); fill: rgb(255, 255, 255); stroke-width: 10px;" rx="19.522" ry="19.522"/>
  <ellipse style="stroke: rgb(0, 0, 0); stroke-width: 0px; fill: rgb(13, 12, 13);" cx="223.5" cy="94.5" rx="13.5" ry="13.5"/>
  <ellipse style="stroke: rgb(0, 0, 0); stroke-width: 0px; fill: rgb(13, 12, 13);" cx="330.321" cy="94.5" rx="13.5" ry="13.5"/>
</svg>